<svg width="33" height="34" viewBox="0 0 33 34" fill="none" xmlns="http://www.w3.org/2000/svg">
<g filter="url(#filter0_bdi_542_847)">
<path d="M7.10059 6.14844C7.65527 6.14844 8.14355 6.24609 8.56543 6.44141C8.99512 6.63672 9.33105 6.90625 9.57324 7.25C9.82324 7.58594 9.94824 7.97266 9.94824 8.41016C9.94824 8.76172 9.87012 9.0625 9.71387 9.3125C9.55762 9.55469 9.3623 9.75 9.12793 9.89844C8.89355 10.0469 8.65527 10.1445 8.41309 10.1914C8.65527 10.2461 8.89355 10.3516 9.12793 10.5078C9.3623 10.6562 9.55762 10.8555 9.71387 11.1055C9.87012 11.3477 9.94824 11.6445 9.94824 11.9961C9.94824 12.457 9.81934 12.8633 9.56152 13.2148C9.31152 13.5664 8.97168 13.8438 8.54199 14.0469C8.1123 14.25 7.62793 14.3516 7.08887 14.3516C6.66699 14.3516 6.27246 14.2891 5.90527 14.1641C5.5459 14.0312 5.26074 13.875 5.0498 13.6953V12.1602C5.31543 12.3398 5.59277 12.5117 5.88184 12.6758C6.1709 12.832 6.51465 12.9102 6.91309 12.9102C7.31152 12.9102 7.64746 12.8164 7.9209 12.6289C8.19434 12.4414 8.33105 12.1602 8.33105 11.7852C8.33105 11.5664 8.26074 11.3867 8.12012 11.2461C7.97949 11.0977 7.7959 10.9883 7.56934 10.918C7.35059 10.8398 7.11621 10.8008 6.86621 10.8008H6.22168V9.53516H6.86621C7.27246 9.53516 7.61621 9.47656 7.89746 9.35938C8.18652 9.24219 8.33105 9.01562 8.33105 8.67969C8.33105 8.33594 8.18262 8.07031 7.88574 7.88281C7.59668 7.6875 7.25684 7.58984 6.86621 7.58984C6.53027 7.58984 6.2334 7.66016 5.97559 7.80078C5.71777 7.93359 5.47949 8.10938 5.26074 8.32812V6.80469C5.46387 6.61719 5.72168 6.46094 6.03418 6.33594C6.34668 6.21094 6.70215 6.14844 7.10059 6.14844Z" fill="white"/>
<path d="M16.2412 6.32422C15.9287 6.62891 15.5811 6.96094 15.1982 7.32031C14.8154 7.67188 14.4561 8.03906 14.1201 8.42188C13.792 8.79688 13.542 9.16797 13.3701 9.53516C13.5498 9.35547 13.749 9.21094 13.9678 9.10156C14.1865 8.99219 14.4248 8.9375 14.6826 8.9375C15.1592 8.9375 15.585 9.05078 15.96 9.27734C16.335 9.49609 16.6318 9.79688 16.8506 10.1797C17.0693 10.5547 17.1787 10.9805 17.1787 11.457C17.1787 11.9805 17.0537 12.4648 16.8037 12.9102C16.5615 13.3477 16.2256 13.6992 15.7959 13.9648C15.3662 14.2227 14.874 14.3516 14.3193 14.3516C13.7959 14.3516 13.3115 14.2305 12.8662 13.9883C12.4209 13.7383 12.0615 13.3906 11.7881 12.9453C11.5146 12.4922 11.3779 11.9531 11.3779 11.3281C11.3779 10.8047 11.4795 10.293 11.6826 9.79297C11.8857 9.29297 12.1396 8.82031 12.4443 8.375C12.749 7.92969 13.0576 7.53125 13.3701 7.17969C13.6904 6.82812 13.9639 6.54297 14.1904 6.32422H16.2412ZM14.2959 10.3438C13.9443 10.3438 13.6396 10.4648 13.3818 10.707C13.1318 10.9414 13.0068 11.2344 13.0068 11.5859C13.0068 11.9688 13.1318 12.2852 13.3818 12.5352C13.6396 12.7852 13.9443 12.9102 14.2959 12.9102C14.6396 12.9102 14.9365 12.7852 15.1865 12.5352C15.4365 12.2852 15.5615 11.9688 15.5615 11.5859C15.5615 11.2344 15.4365 10.9414 15.1865 10.707C14.9365 10.4648 14.6396 10.3438 14.2959 10.3438Z" fill="white"/>
<path d="M20.9873 6.14844C21.6592 6.14844 22.2178 6.33594 22.6631 6.71094C23.1162 7.07812 23.4521 7.57422 23.6709 8.19922C23.8975 8.81641 24.0107 9.5 24.0107 10.25C24.0107 11 23.8975 11.6875 23.6709 12.3125C23.4521 12.9297 23.1162 13.4258 22.6631 13.8008C22.2178 14.168 21.6592 14.3516 20.9873 14.3516C20.3154 14.3516 19.7529 14.168 19.2998 13.8008C18.8545 13.4258 18.5186 12.9297 18.292 12.3125C18.0732 11.6875 17.9639 11 17.9639 10.25C17.9639 9.5 18.0732 8.81641 18.292 8.19922C18.5186 7.57422 18.8545 7.07812 19.2998 6.71094C19.7529 6.33594 20.3154 6.14844 20.9873 6.14844ZM20.9873 7.56641C20.6748 7.56641 20.4131 7.6875 20.2021 7.92969C19.999 8.16406 19.8467 8.48438 19.7451 8.89062C19.6436 9.28906 19.5928 9.74219 19.5928 10.25C19.5928 10.7578 19.6436 11.2148 19.7451 11.6211C19.8467 12.0195 19.999 12.3359 20.2021 12.5703C20.4131 12.8047 20.6748 12.9219 20.9873 12.9219C21.2998 12.9219 21.5576 12.8047 21.7607 12.5703C21.9717 12.3359 22.1279 12.0195 22.2295 11.6211C22.3389 11.2148 22.3936 10.7578 22.3936 10.25C22.3936 9.74219 22.3389 9.28906 22.2295 8.89062C22.1279 8.48438 21.9717 8.16406 21.7607 7.92969C21.5576 7.6875 21.2998 7.56641 20.9873 7.56641Z" fill="white"/>
<path d="M26.8584 6.14844C27.249 6.14844 27.5928 6.24219 27.8896 6.42969C28.1943 6.60938 28.4326 6.85156 28.6045 7.15625C28.7764 7.46094 28.8623 7.79688 28.8623 8.16406C28.8623 8.53125 28.7764 8.87109 28.6045 9.18359C28.4326 9.48828 28.1943 9.73438 27.8896 9.92188C27.5928 10.1016 27.249 10.1914 26.8584 10.1914C26.4678 10.1914 26.1201 10.1016 25.8154 9.92188C25.5107 9.73438 25.2725 9.48828 25.1006 9.18359C24.9287 8.87109 24.8428 8.53125 24.8428 8.16406C24.8428 7.79688 24.9287 7.46094 25.1006 7.15625C25.2725 6.85156 25.5107 6.60938 25.8154 6.42969C26.1201 6.24219 26.4678 6.14844 26.8584 6.14844ZM26.8584 7.29688C26.6162 7.29688 26.4131 7.38672 26.249 7.56641C26.085 7.73828 26.0029 7.9375 26.0029 8.16406C26.0029 8.40625 26.085 8.61328 26.249 8.78516C26.4131 8.95703 26.6162 9.04297 26.8584 9.04297C27.0928 9.04297 27.292 8.95703 27.4561 8.78516C27.6201 8.61328 27.7021 8.40625 27.7021 8.16406C27.7021 7.9375 27.6201 7.73828 27.4561 7.56641C27.292 7.38672 27.0928 7.29688 26.8584 7.29688Z" fill="white"/>
<path d="M16.9561 18.3516C16.5273 18.3516 6.45605 18.3835 6.45605 21.1539C6.45605 23.3289 12.5977 23.8132 15.2168 23.9207L14.3558 24.8159C14.1287 25.0512 14.1277 25.4347 14.3533 25.6721V25.6726C14.5789 25.91 14.9458 25.9115 15.1726 25.6752L16.8226 23.9607C17.0495 23.7249 17.0696 23.3237 16.8636 23.0676C16.4468 22.5498 15.7726 21.718 15.3537 21.2009C15.1468 20.9464 14.7811 20.9142 14.5371 21.1313C14.2934 21.3479 14.2634 21.7299 14.4705 21.985L15.0531 22.7028C11.359 22.5456 9.0541 21.9652 8.10213 21.4936C7.81296 21.3505 7.80998 20.9534 8.09915 20.8093C9.24638 20.2403 12.3145 19.5625 16.9563 19.5625C21.5984 19.5625 24.6662 20.2406 25.8132 20.8093C26.1024 20.9529 26.0994 21.3505 25.8097 21.4936C24.816 21.9852 22.3531 22.5973 18.3711 22.722C18.0516 22.7321 17.7965 23.0076 17.8024 23.3424C17.8082 23.6766 18.072 23.9431 18.392 23.9322C20.8019 23.8501 27.4561 23.4174 27.4561 21.1537C27.4558 18.3835 17.3848 18.3516 16.9561 18.3516Z" fill="white"/>
</g>
<defs>
<filter id="filter0_bdi_542_847" x="-15.0439" y="-16" width="64" height="64" filterUnits="userSpaceOnUse" color-interpolation-filters="sRGB">
<feFlood flood-opacity="0" result="BackgroundImageFix"/>
<feGaussianBlur in="BackgroundImageFix" stdDeviation="8"/>
<feComposite in2="SourceAlpha" operator="in" result="effect1_backgroundBlur_542_847"/>
<feColorMatrix in="SourceAlpha" type="matrix" values="0 0 0 0 0 0 0 0 0 0 0 0 0 0 0 0 0 0 127 0" result="hardAlpha"/>
<feOffset dy="4"/>
<feGaussianBlur stdDeviation="2"/>
<feComposite in2="hardAlpha" operator="out"/>
<feColorMatrix type="matrix" values="0 0 0 0 0 0 0 0 0 0 0 0 0 0 0 0 0 0 0.25 0"/>
<feBlend mode="normal" in2="effect1_backgroundBlur_542_847" result="effect2_dropShadow_542_847"/>
<feBlend mode="normal" in="SourceGraphic" in2="effect2_dropShadow_542_847" result="shape"/>
<feColorMatrix in="SourceAlpha" type="matrix" values="0 0 0 0 0 0 0 0 0 0 0 0 0 0 0 0 0 0 127 0" result="hardAlpha"/>
<feMorphology radius="1" operator="erode" in="SourceAlpha" result="effect3_innerShadow_542_847"/>
<feOffset dx="1" dy="1"/>
<feGaussianBlur stdDeviation="2.5"/>
<feComposite in2="hardAlpha" operator="arithmetic" k2="-1" k3="1"/>
<feColorMatrix type="matrix" values="0 0 0 0 1 0 0 0 0 1 0 0 0 0 1 0 0 0 0.32 0"/>
<feBlend mode="normal" in2="shape" result="effect3_innerShadow_542_847"/>
</filter>
</defs>
</svg>
