<svg width="33" height="36" viewBox="0 0 33 36" fill="none" xmlns="http://www.w3.org/2000/svg">
<g filter="url(#filter0_bdi_542_852)">
<path d="M16.3939 24.4322C15.4238 24.4322 14.5164 24.3697 13.6402 24.2758C13.515 24.2758 13.3586 24.2445 13.2334 24.2445V25.6213C13.2334 26.9356 14.2973 27.9995 15.6116 27.9995H17.3326C18.6469 27.9995 19.7108 26.9356 19.7108 25.6213V24.2132C19.5856 24.2445 19.4292 24.2445 19.304 24.2758C18.4278 24.3697 17.4265 24.4322 16.3939 24.4322Z" fill="white"/>
<path d="M13.5381 6.94191C13.5381 8.56909 14.8523 9.88334 16.4795 9.88334C18.1067 9.88334 19.4209 8.56909 19.4209 6.94191C19.4209 5.31474 18.1067 4.00049 16.4795 4.00049C14.8836 4.03178 13.5381 5.34603 13.5381 6.94191Z" fill="white"/>
<path d="M27.9013 21.0235C27.7136 20.0221 27.3694 19.0208 26.8687 17.9882C26.7748 17.8004 26.6496 17.5814 26.5245 17.3623C26.4932 17.2998 26.4306 17.2685 26.368 17.2685C26.3054 17.2685 26.2428 17.2685 26.2116 17.331C25.398 18.0508 24.4592 18.833 23.4266 19.5528C22.9885 19.8657 22.5191 20.1786 22.0185 20.5228C21.9559 20.5854 21.9246 20.648 21.9246 20.7418C21.9559 20.8357 22.0185 20.8983 22.1123 20.8983C22.3314 20.9296 22.5817 20.9296 22.8008 20.9609C23.0511 20.9922 23.2701 20.9922 23.5205 21.0235C23.3953 21.0861 23.2701 21.1486 23.1137 21.1799C22.7382 21.3051 22.3627 21.4616 21.9559 21.5554C21.2675 21.7432 20.5477 21.8996 19.7655 21.9935V20.4602C20.4226 20.0221 20.8294 19.3024 20.8294 18.4575V12.9502C20.8294 11.6359 19.7655 10.572 18.4512 10.572H14.571C13.2568 10.572 12.1928 11.6359 12.1928 12.9502V15.078C8.46912 15.7352 5.99707 17.2372 5.99707 19.1147C5.99707 19.3963 6.05965 19.6779 6.18482 19.9596C7.09228 22.0248 11.1915 23.4642 16.4172 23.4642C20.5477 23.4642 23.9898 22.5568 25.6796 21.1486C26.368 21.1799 27.0251 21.2112 27.7136 21.2425H27.7449C27.7761 21.2425 27.8387 21.2112 27.87 21.1799C27.9013 21.1486 27.9326 21.0861 27.9013 21.0235ZM13.2255 22.0248C11.9112 21.8371 10.6908 21.5554 9.6895 21.1799C8.46912 20.7106 7.65553 20.1473 7.34262 19.5841C7.31132 19.5215 7.28003 19.4276 7.24874 19.365C7.21745 19.2711 7.21745 19.2086 7.21745 19.1147C7.21745 18.395 8.1562 17.6127 9.6895 17.0181C10.4092 16.7365 11.2541 16.5175 12.1616 16.3297V18.4888C12.1616 19.3024 12.5996 20.0534 13.2255 20.4915V22.0248Z" fill="white"/>
</g>
<defs>
<filter id="filter0_bdi_542_852" x="-15.0439" y="-16" width="64" height="64" filterUnits="userSpaceOnUse" color-interpolation-filters="sRGB">
<feFlood flood-opacity="0" result="BackgroundImageFix"/>
<feGaussianBlur in="BackgroundImageFix" stdDeviation="8"/>
<feComposite in2="SourceAlpha" operator="in" result="effect1_backgroundBlur_542_852"/>
<feColorMatrix in="SourceAlpha" type="matrix" values="0 0 0 0 0 0 0 0 0 0 0 0 0 0 0 0 0 0 127 0" result="hardAlpha"/>
<feOffset dy="4"/>
<feGaussianBlur stdDeviation="2"/>
<feComposite in2="hardAlpha" operator="out"/>
<feColorMatrix type="matrix" values="0 0 0 0 0 0 0 0 0 0 0 0 0 0 0 0 0 0 0.25 0"/>
<feBlend mode="normal" in2="effect1_backgroundBlur_542_852" result="effect2_dropShadow_542_852"/>
<feBlend mode="normal" in="SourceGraphic" in2="effect2_dropShadow_542_852" result="shape"/>
<feColorMatrix in="SourceAlpha" type="matrix" values="0 0 0 0 0 0 0 0 0 0 0 0 0 0 0 0 0 0 127 0" result="hardAlpha"/>
<feMorphology radius="1" operator="erode" in="SourceAlpha" result="effect3_innerShadow_542_852"/>
<feOffset dx="1" dy="1"/>
<feGaussianBlur stdDeviation="2.5"/>
<feComposite in2="hardAlpha" operator="arithmetic" k2="-1" k3="1"/>
<feColorMatrix type="matrix" values="0 0 0 0 1 0 0 0 0 1 0 0 0 0 1 0 0 0 0.32 0"/>
<feBlend mode="normal" in2="shape" result="effect3_innerShadow_542_852"/>
</filter>
</defs>
</svg>
