<svg width="33" height="36" viewBox="0 0 33 36" fill="none" xmlns="http://www.w3.org/2000/svg">
<g filter="url(#filter0_bdi_542_879)">
<path d="M9.6519 24.1401C8.73145 24.1401 8.03542 23.9072 7.56383 23.4413C7.09224 22.9754 6.85645 22.2879 6.85645 21.3788V10.9981C6.85645 10.089 7.09224 9.40151 7.56383 8.9356C8.03542 8.46401 8.73145 8.22821 9.6519 8.22821H24.2428C25.1689 8.22821 25.8678 8.46401 26.3394 8.9356C26.811 9.40151 27.0468 10.089 27.0468 10.9981V21.3788C27.0468 22.2879 26.811 22.9754 26.3394 23.4413C25.8678 23.9072 25.1689 24.1401 24.2428 24.1401H9.6519ZM9.75417 22.4697H24.1491C24.5411 22.4697 24.8422 22.3674 25.0525 22.1629C25.2627 21.9526 25.3678 21.643 25.3678 21.2339V11.143C25.3678 10.7339 25.2627 10.4271 25.0525 10.2225C24.8422 10.0123 24.5411 9.90719 24.1491 9.90719H9.75417C9.35645 9.90719 9.05247 10.0123 8.84224 10.2225C8.6377 10.4271 8.53542 10.7339 8.53542 11.143V21.2339C8.53542 21.643 8.6377 21.9526 8.84224 22.1629C9.05247 22.3674 9.35645 22.4697 9.75417 22.4697ZM15.4559 19.5208C15.3025 19.6117 15.1491 19.6515 14.9956 19.6401C14.8479 19.6231 14.7229 19.5663 14.6206 19.4697C14.5184 19.3674 14.4672 19.2339 14.4672 19.0691V13.2992C14.4672 13.1345 14.5184 13.0038 14.6206 12.9072C14.7229 12.8106 14.8508 12.7566 15.0042 12.7453C15.1633 12.7282 15.3138 12.7623 15.4559 12.8475L20.1945 15.6515C20.3309 15.7311 20.4218 15.8418 20.4672 15.9839C20.5127 16.1203 20.5127 16.2595 20.4672 16.4015C20.4275 16.5379 20.3366 16.6487 20.1945 16.7339L15.4559 19.5208Z" fill="white"/>
</g>
<defs>
<filter id="filter0_bdi_542_879" x="-15.0439" y="-16" width="64" height="64" filterUnits="userSpaceOnUse" color-interpolation-filters="sRGB">
<feFlood flood-opacity="0" result="BackgroundImageFix"/>
<feGaussianBlur in="BackgroundImageFix" stdDeviation="8"/>
<feComposite in2="SourceAlpha" operator="in" result="effect1_backgroundBlur_542_879"/>
<feColorMatrix in="SourceAlpha" type="matrix" values="0 0 0 0 0 0 0 0 0 0 0 0 0 0 0 0 0 0 127 0" result="hardAlpha"/>
<feOffset dy="4"/>
<feGaussianBlur stdDeviation="2"/>
<feComposite in2="hardAlpha" operator="out"/>
<feColorMatrix type="matrix" values="0 0 0 0 0 0 0 0 0 0 0 0 0 0 0 0 0 0 0.25 0"/>
<feBlend mode="normal" in2="effect1_backgroundBlur_542_879" result="effect2_dropShadow_542_879"/>
<feBlend mode="normal" in="SourceGraphic" in2="effect2_dropShadow_542_879" result="shape"/>
<feColorMatrix in="SourceAlpha" type="matrix" values="0 0 0 0 0 0 0 0 0 0 0 0 0 0 0 0 0 0 127 0" result="hardAlpha"/>
<feMorphology radius="1" operator="erode" in="SourceAlpha" result="effect3_innerShadow_542_879"/>
<feOffset dx="1" dy="1"/>
<feGaussianBlur stdDeviation="2.5"/>
<feComposite in2="hardAlpha" operator="arithmetic" k2="-1" k3="1"/>
<feColorMatrix type="matrix" values="0 0 0 0 1 0 0 0 0 1 0 0 0 0 1 0 0 0 0.32 0"/>
<feBlend mode="normal" in2="shape" result="effect3_innerShadow_542_879"/>
</filter>
</defs>
</svg>
